<mxfile host="Electron" modified="2023-06-11T12:01:56.139Z" agent="Mozilla/5.0 (Windows NT 10.0; Win64; x64) AppleWebKit/537.36 (KHTML, like Gecko) draw.io/21.2.8 Chrome/112.0.5615.165 Electron/24.2.0 Safari/537.36" etag="lQ9G6RZJ878lsp4RHhwl" version="21.2.8" type="device">
  <diagram id="auQ4tK3FNU_SihqYigeP" name="Page-1">
    <mxGraphModel dx="3015" dy="1726" grid="1" gridSize="10" guides="1" tooltips="1" connect="1" arrows="1" fold="1" page="0" pageScale="1" pageWidth="827" pageHeight="1169" background="none" math="0" shadow="0">
      <root>
        <mxCell id="0" />
        <mxCell id="1" parent="0" />
        <mxCell id="o7I11ooh4matLgYH27c4-95" value="" style="group" parent="1" vertex="1" connectable="0">
          <mxGeometry x="830" y="840" width="290" height="330" as="geometry" />
        </mxCell>
        <mxCell id="o7I11ooh4matLgYH27c4-1" value="" style="shape=folder;fontStyle=1;spacingTop=10;tabWidth=220;tabHeight=30;tabPosition=left;html=1;whiteSpace=wrap;" parent="o7I11ooh4matLgYH27c4-95" vertex="1">
          <mxGeometry width="290" height="330" as="geometry" />
        </mxCell>
        <mxCell id="o7I11ooh4matLgYH27c4-2" value="&lt;p style=&quot;margin: 4px 0px 0px; text-align: center; line-height: 120%;&quot;&gt;&lt;b&gt;&lt;font style=&quot;font-size: 16px;&quot;&gt;Deserializer&lt;/font&gt;&lt;/b&gt;&lt;/p&gt;&lt;hr style=&quot;line-height: 120%;&quot; size=&quot;1&quot;&gt;&lt;p style=&quot;margin: 0px 0px 0px 4px; line-height: 120%;&quot;&gt;&lt;/p&gt;&lt;p style=&quot;margin: 0px 0px 0px 4px; line-height: 120%;&quot;&gt;- JSONMapper: ObjectMapper&lt;/p&gt;&lt;hr style=&quot;line-height: 120%;&quot; size=&quot;1&quot;&gt;&lt;p style=&quot;margin: 0px 0px 0px 4px; line-height: 120%;&quot;&gt;+ Deserializer():&lt;br style=&quot;border-color: var(--border-color);&quot;&gt;&lt;/p&gt;&lt;p style=&quot;margin: 0px 0px 0px 4px; line-height: 120%;&quot;&gt;+&amp;nbsp;deserialize(String): Article[]&lt;/p&gt;" style="verticalAlign=top;align=left;overflow=fill;fontSize=14;fontFamily=Helvetica;html=1;rounded=0;shadow=0;comic=0;labelBackgroundColor=none;strokeWidth=1;" parent="o7I11ooh4matLgYH27c4-95" vertex="1">
          <mxGeometry x="40" y="60" width="213" height="110" as="geometry" />
        </mxCell>
        <mxCell id="o7I11ooh4matLgYH27c4-3" value="&lt;p style=&quot;margin: 4px 0px 0px; text-align: center; line-height: 120%;&quot;&gt;&lt;b&gt;&lt;font style=&quot;font-size: 16px;&quot;&gt;Serializer&lt;/font&gt;&lt;/b&gt;&lt;/p&gt;&lt;hr style=&quot;line-height: 120%;&quot; size=&quot;1&quot;&gt;&lt;p style=&quot;margin: 0px 0px 0px 4px; line-height: 120%;&quot;&gt;&lt;/p&gt;&lt;p style=&quot;margin: 0px 0px 0px 4px; line-height: 120%;&quot;&gt;- JSONMapper: ObjectMapper&lt;/p&gt;&lt;hr style=&quot;line-height: 120%;&quot; size=&quot;1&quot;&gt;&lt;p style=&quot;margin: 0px 0px 0px 4px; line-height: 120%;&quot;&gt;+ Serializer():&lt;br style=&quot;border-color: var(--border-color);&quot;&gt;&lt;/p&gt;&lt;p style=&quot;margin: 0px 0px 0px 4px; line-height: 120%;&quot;&gt;+ serialize(Article[], String): void&lt;/p&gt;" style="verticalAlign=top;align=left;overflow=fill;fontSize=14;fontFamily=Helvetica;html=1;rounded=0;shadow=0;comic=0;labelBackgroundColor=none;strokeWidth=1;" parent="o7I11ooh4matLgYH27c4-95" vertex="1">
          <mxGeometry x="40" y="200" width="213" height="110" as="geometry" />
        </mxCell>
        <mxCell id="o7I11ooh4matLgYH27c4-4" value="&lt;font style=&quot;font-size: 20px;&quot;&gt;Serializer/Deserializer&lt;/font&gt;" style="text;strokeColor=none;fillColor=none;html=1;fontSize=24;fontStyle=1;verticalAlign=middle;align=center;" parent="o7I11ooh4matLgYH27c4-95" vertex="1">
          <mxGeometry x="30" width="160" height="20" as="geometry" />
        </mxCell>
        <mxCell id="o7I11ooh4matLgYH27c4-130" value="&lt;span style=&quot;font-weight: normal;&quot;&gt;generates&lt;/span&gt;" style="text;strokeColor=none;fillColor=none;html=1;fontSize=24;fontStyle=1;verticalAlign=middle;align=center;rotation=90;" parent="1" vertex="1">
          <mxGeometry x="-380" y="1180" width="70" height="40" as="geometry" />
        </mxCell>
        <mxCell id="o7I11ooh4matLgYH27c4-135" value="&lt;span style=&quot;font-weight: normal;&quot;&gt;generates&lt;/span&gt;" style="text;strokeColor=none;fillColor=none;html=1;fontSize=24;fontStyle=1;verticalAlign=middle;align=center;rotation=90;" parent="1" vertex="1">
          <mxGeometry x="240" y="1180" width="70" height="40" as="geometry" />
        </mxCell>
        <mxCell id="o7I11ooh4matLgYH27c4-13" value="" style="shape=folder;fontStyle=1;spacingTop=10;tabWidth=120;tabHeight=30;tabPosition=left;html=1;whiteSpace=wrap;container=0;" parent="1" vertex="1">
          <mxGeometry x="790" y="460" width="400" height="290" as="geometry" />
        </mxCell>
        <mxCell id="o7I11ooh4matLgYH27c4-98" value="&lt;p style=&quot;margin: 4px 0px 0px; text-align: center; line-height: 120%;&quot;&gt;&lt;b&gt;&lt;font style=&quot;font-size: 16px;&quot;&gt;Tokenizer&lt;/font&gt;&lt;/b&gt;&lt;/p&gt;&lt;hr style=&quot;line-height: 120%;&quot; size=&quot;1&quot;&gt;&lt;p style=&quot;margin: 0px 0px 0px 4px; line-height: 120%;&quot;&gt;&lt;/p&gt;&lt;p style=&quot;margin: 0px 0px 0px 4px; line-height: 120%;&quot;&gt;&lt;span style=&quot;background-color: initial;&quot;&gt;- pipeline: StanfordCoreNLP&lt;/span&gt;&lt;br&gt;&lt;/p&gt;&lt;p style=&quot;margin: 0px 0px 0px 4px; line-height: 120%;&quot;&gt;- checks: boolean&lt;/p&gt;&lt;p style=&quot;margin: 0px 0px 0px 4px; line-height: 120%;&quot;&gt;- commonWords: List&amp;lt;String&amp;gt;&lt;/p&gt;&lt;p style=&quot;margin: 0px 0px 0px 4px; line-height: 120%;&quot;&gt;- storage: TokensStorage&lt;/p&gt;&lt;p style=&quot;margin: 0px 0px 0px 4px; line-height: 120%;&quot;&gt;- FILENAME: String&lt;/p&gt;&lt;p style=&quot;margin: 0px 0px 0px 4px; line-height: 120%;&quot;&gt;- REGEX: String&lt;/p&gt;&lt;hr style=&quot;line-height: 120%;&quot; size=&quot;1&quot;&gt;&lt;p style=&quot;margin: 0px 0px 0px 4px; line-height: 120%;&quot;&gt;+ Tokenizer(boolean, TokensStorage):&lt;/p&gt;&lt;p style=&quot;margin: 0px 0px 0px 4px; line-height: 120%;&quot;&gt;+ tokenize(String, List&amp;lt;String&amp;gt;): void&lt;/p&gt;" style="verticalAlign=top;align=left;overflow=fill;fontSize=14;fontFamily=Helvetica;html=1;rounded=0;shadow=0;comic=0;labelBackgroundColor=none;strokeWidth=1;container=0;" parent="1" vertex="1">
          <mxGeometry x="830" y="540" width="290" height="190" as="geometry" />
        </mxCell>
        <mxCell id="o7I11ooh4matLgYH27c4-100" value="&lt;font style=&quot;font-size: 24px;&quot;&gt;Tokenizer&lt;/font&gt;" style="text;strokeColor=none;fillColor=none;html=1;fontSize=24;fontStyle=1;verticalAlign=middle;align=center;container=0;" parent="1" vertex="1">
          <mxGeometry x="800" y="450" width="100" height="50" as="geometry" />
        </mxCell>
        <mxCell id="o7I11ooh4matLgYH27c4-101" value="" style="shape=folder;fontStyle=1;spacingTop=10;tabWidth=110;tabHeight=30;tabPosition=left;html=1;whiteSpace=wrap;container=0;" parent="1" vertex="1">
          <mxGeometry x="730" y="-80" width="490" height="450" as="geometry" />
        </mxCell>
        <mxCell id="o7I11ooh4matLgYH27c4-102" value="&lt;p style=&quot;margin: 4px 0px 0px; text-align: center; line-height: 120%; font-size: 16px;&quot;&gt;&lt;b style=&quot;&quot;&gt;&lt;font style=&quot;font-size: 16px;&quot;&gt;TreeStorage&lt;/font&gt;&lt;/b&gt;&lt;/p&gt;&lt;hr style=&quot;line-height: 120%; font-size: 16px;&quot; size=&quot;1&quot;&gt;&lt;p style=&quot;margin: 0px 0px 0px 4px; line-height: 120%;&quot;&gt;- tokens:&amp;nbsp;HashMap&amp;lt;String, Integer&amp;gt;&lt;/p&gt;&lt;hr style=&quot;line-height: 120%;&quot; size=&quot;1&quot;&gt;&lt;p style=&quot;margin: 0px 0px 0px 4px; line-height: 120%;&quot;&gt;+ TreeStorage():&lt;/p&gt;&lt;p style=&quot;margin: 0px 0px 0px 4px; line-height: 120%;&quot;&gt;+ removeTokens(): void&lt;br&gt;+ getTokens(): List&amp;lt;String&amp;gt;&lt;br&gt;+ getFrequency(String): int&lt;br&gt;&lt;/p&gt;&lt;p style=&quot;margin: 0px 0px 0px 4px; line-height: 120%;&quot;&gt;+ size(): int&lt;/p&gt;&lt;p style=&quot;margin: 0px 0px 0px 4px; line-height: 120%;&quot;&gt;+ isEmpty(): boolean&lt;/p&gt;" style="verticalAlign=top;align=left;overflow=fill;fontSize=14;fontFamily=Helvetica;html=1;rounded=0;shadow=0;comic=0;labelBackgroundColor=none;strokeWidth=1;container=0;" parent="1" vertex="1">
          <mxGeometry x="785.5" y="150" width="381" height="180" as="geometry" />
        </mxCell>
        <mxCell id="o7I11ooh4matLgYH27c4-103" value="" style="html=1;rounded=1;edgeStyle=orthogonalEdgeStyle;dashed=1;startArrow=none;endArrow=block;endSize=12;strokeColor=#008200;exitX=0.500;exitY=0.000;exitDx=0;exitDy=0;entryX=0.5;entryY=1;entryDx=0;entryDy=0;" parent="1" source="o7I11ooh4matLgYH27c4-102" target="o7I11ooh4matLgYH27c4-104" edge="1">
          <mxGeometry width="50" height="50" relative="1" as="geometry">
            <Array as="points" />
            <mxPoint x="1001" y="130" as="targetPoint" />
          </mxGeometry>
        </mxCell>
        <mxCell id="o7I11ooh4matLgYH27c4-104" value="&lt;div style=&quot;text-align: center; line-height: 120%;&quot;&gt;&lt;i style=&quot;background-color: initial; border-color: var(--border-color);&quot;&gt;&amp;lt;&amp;lt;interface&amp;gt;&amp;gt;&lt;/i&gt;&lt;br&gt;&lt;/div&gt;&lt;b style=&quot;border-color: var(--border-color); font-size: 16px;&quot;&gt;&lt;div style=&quot;text-align: center; line-height: 120%;&quot;&gt;&lt;b style=&quot;background-color: initial; border-color: var(--border-color);&quot;&gt;&lt;b style=&quot;border-color: var(--border-color);&quot;&gt;&lt;font style=&quot;font-size: 16px;&quot;&gt;TokensStorage&lt;/font&gt;&lt;/b&gt;&lt;/b&gt;&lt;/div&gt;&lt;/b&gt;&lt;hr style=&quot;line-height: 120%; font-size: 16px;&quot; size=&quot;1&quot;&gt;&lt;p style=&quot;margin: 0px 0px 0px 4px; line-height: 120%;&quot;&gt;&lt;/p&gt;&lt;p style=&quot;margin: 0px 0px 0px 4px; line-height: 120%;&quot;&gt;&amp;nbsp;&lt;/p&gt;&lt;hr style=&quot;line-height: 120%;&quot; size=&quot;1&quot;&gt;&lt;p style=&quot;margin: 0px 0px 0px 4px; line-height: 120%;&quot;&gt;+ enterTokens(List&amp;lt;String&amp;gt;): void&lt;br style=&quot;border-color: var(--border-color);&quot;&gt;+ getOrderedTokens(int): Set&amp;lt;Map.Entry&amp;lt;Integer, List&amp;lt;String&amp;gt;&amp;gt;&amp;gt;&lt;br&gt;&lt;/p&gt;" style="verticalAlign=top;align=left;overflow=fill;fontSize=14;fontFamily=Helvetica;html=1;rounded=0;shadow=0;comic=0;labelBackgroundColor=none;strokeWidth=1;container=0;" parent="1" vertex="1">
          <mxGeometry x="762" y="-20" width="428" height="120" as="geometry" />
        </mxCell>
        <mxCell id="o7I11ooh4matLgYH27c4-105" value="&lt;font style=&quot;font-size: 24px;&quot;&gt;Storage&lt;/font&gt;" style="text;strokeColor=none;fillColor=none;html=1;fontSize=24;fontStyle=1;verticalAlign=middle;align=center;container=0;" parent="1" vertex="1">
          <mxGeometry x="730" y="-80" width="100" height="30" as="geometry" />
        </mxCell>
        <mxCell id="jg3caL4LqUSSH-scn2YQ-4" value="" style="endArrow=diamondThin;endFill=0;endSize=24;html=1;rounded=0;exitX=0.5;exitY=1;exitDx=0;exitDy=0;entryX=0.5;entryY=0;entryDx=0;entryDy=0;" parent="1" source="o7I11ooh4matLgYH27c4-102" target="o7I11ooh4matLgYH27c4-98" edge="1">
          <mxGeometry width="160" relative="1" as="geometry">
            <mxPoint x="710" y="540" as="sourcePoint" />
            <mxPoint x="955" y="530" as="targetPoint" />
          </mxGeometry>
        </mxCell>
        <mxCell id="-yUXrJWbzMwKg_9LQQd3-13" value="&lt;span style=&quot;color: rgb(0, 0, 0); font-family: Helvetica; font-size: 18px; font-style: normal; font-variant-ligatures: normal; font-variant-caps: normal; font-weight: 400; letter-spacing: normal; orphans: 2; text-align: left; text-indent: 0px; text-transform: none; widows: 2; word-spacing: 0px; -webkit-text-stroke-width: 0px; background-color: rgb(255, 255, 255); text-decoration-thickness: initial; text-decoration-style: initial; text-decoration-color: initial; float: none; display: inline !important;&quot;&gt;1&lt;/span&gt;" style="text;whiteSpace=wrap;html=1;" parent="1" vertex="1">
          <mxGeometry x="980" y="490" width="20" height="30" as="geometry" />
        </mxCell>
        <mxCell id="-yUXrJWbzMwKg_9LQQd3-14" value="&lt;span style=&quot;color: rgb(0, 0, 0); font-family: Helvetica; font-size: 18px; font-style: normal; font-variant-ligatures: normal; font-variant-caps: normal; font-weight: 400; letter-spacing: normal; orphans: 2; text-align: left; text-indent: 0px; text-transform: none; widows: 2; word-spacing: 0px; -webkit-text-stroke-width: 0px; background-color: rgb(255, 255, 255); text-decoration-thickness: initial; text-decoration-style: initial; text-decoration-color: initial; float: none; display: inline !important;&quot;&gt;1&lt;/span&gt;" style="text;whiteSpace=wrap;html=1;" parent="1" vertex="1">
          <mxGeometry x="950" y="330" width="20" height="30" as="geometry" />
        </mxCell>
        <mxCell id="mAL0lLLCEUub4huDnKcQ-2" value="" style="group" parent="1" vertex="1" connectable="0">
          <mxGeometry x="-550" y="1360" width="970" height="910" as="geometry" />
        </mxCell>
        <mxCell id="o7I11ooh4matLgYH27c4-107" value="" style="shape=folder;fontStyle=1;spacingTop=10;tabWidth=140;tabHeight=40;tabPosition=left;html=1;whiteSpace=wrap;" parent="mAL0lLLCEUub4huDnKcQ-2" vertex="1">
          <mxGeometry width="970" height="910" as="geometry" />
        </mxCell>
        <mxCell id="o7I11ooh4matLgYH27c4-108" value="&lt;p style=&quot;margin: 4px 0px 0px; text-align: center; line-height: 120%;&quot;&gt;&lt;b&gt;&lt;font style=&quot;font-size: 16px;&quot;&gt;APIArticle&lt;/font&gt;&lt;/b&gt;&lt;/p&gt;&lt;hr style=&quot;line-height: 120%;&quot; size=&quot;1&quot;&gt;&lt;p style=&quot;margin: 0px 0px 0px 4px; line-height: 120%;&quot;&gt;- webUrl: URL&lt;br&gt;- isHosted: boolean&lt;br&gt;- wordcount: int&lt;br&gt;- sectionName: String&lt;br&gt;- pillarId: String&lt;br&gt;- sectionId: String&lt;br&gt;- apiUrl: URL&lt;br&gt;- Id: String&lt;br&gt;- webPublicationDate: String&lt;br&gt;- type: String&lt;br&gt;- webTitle: String&lt;br&gt;- pillarName: String&lt;/p&gt;&lt;hr style=&quot;line-height: 120%;&quot; size=&quot;1&quot;&gt;&lt;p style=&quot;border-color: var(--border-color); margin: 0px 0px 0px 4px; line-height: 120%;&quot;&gt;+ APIArticle(String, String, String, String, String, String,&amp;nbsp;String,&lt;/p&gt;&lt;p style=&quot;border-color: var(--border-color); margin: 0px 0px 0px 4px; line-height: 120%;&quot;&gt;&lt;span style=&quot;border-color: var(--border-color); background-color: initial;&quot;&gt;&lt;span style=&quot;border-color: var(--border-color);&quot;&gt; &lt;/span&gt;&lt;span style=&quot;border-color: var(--border-color);&quot;&gt; &lt;/span&gt;&amp;nbsp; &amp;nbsp; String, URL, URL, boolean, String, String, String):&lt;/span&gt;&lt;/p&gt;&lt;p style=&quot;border-color: var(--border-color); margin: 0px 0px 0px 4px; line-height: 120%;&quot;&gt;&lt;span style=&quot;background-color: initial;&quot;&gt;+ getId(): String&lt;/span&gt;&lt;br&gt;&lt;/p&gt;&lt;p style=&quot;border-color: var(--border-color); margin: 0px 0px 0px 4px; line-height: 120%;&quot;&gt;&lt;span style=&quot;border-color: var(--border-color); background-color: initial;&quot;&gt;+ getType(): String&lt;/span&gt;&lt;/p&gt;&lt;p style=&quot;border-color: var(--border-color); margin: 0px 0px 0px 4px; line-height: 120%;&quot;&gt;&lt;span style=&quot;border-color: var(--border-color); background-color: initial;&quot;&gt;+ getSectionId(): String&lt;/span&gt;&lt;/p&gt;&lt;p style=&quot;border-color: var(--border-color); margin: 0px 0px 0px 4px; line-height: 120%;&quot;&gt;&lt;span style=&quot;border-color: var(--border-color); background-color: initial;&quot;&gt;+ getSectionName(): String&lt;/span&gt;&lt;/p&gt;&lt;p style=&quot;border-color: var(--border-color); margin: 0px 0px 0px 4px; line-height: 120%;&quot;&gt;&lt;span style=&quot;border-color: var(--border-color); background-color: initial;&quot;&gt;+ getWebPubblicationDate(): String&lt;/span&gt;&lt;/p&gt;&lt;p style=&quot;border-color: var(--border-color); margin: 0px 0px 0px 4px; line-height: 120%;&quot;&gt;&lt;span style=&quot;border-color: var(--border-color); background-color: initial;&quot;&gt;+ getWebTitle(): String&lt;/span&gt;&lt;/p&gt;&lt;p style=&quot;border-color: var(--border-color); margin: 0px 0px 0px 4px; line-height: 120%;&quot;&gt;&lt;span style=&quot;border-color: var(--border-color); background-color: initial;&quot;&gt;+ getWebUrl(): URL&lt;/span&gt;&lt;/p&gt;&lt;p style=&quot;border-color: var(--border-color); margin: 0px 0px 0px 4px; line-height: 120%;&quot;&gt;&lt;span style=&quot;border-color: var(--border-color); background-color: initial;&quot;&gt;+ getApiUrl(): URL&lt;/span&gt;&lt;/p&gt;&lt;p style=&quot;border-color: var(--border-color); margin: 0px 0px 0px 4px; line-height: 120%;&quot;&gt;&lt;span style=&quot;border-color: var(--border-color); background-color: initial;&quot;&gt;+ getHosted(boolean): boolean&lt;/span&gt;&lt;/p&gt;&lt;p style=&quot;border-color: var(--border-color); margin: 0px 0px 0px 4px; line-height: 120%;&quot;&gt;&lt;span style=&quot;border-color: var(--border-color); background-color: initial;&quot;&gt;+ getPillarId(): String&lt;/span&gt;&lt;/p&gt;&lt;p style=&quot;border-color: var(--border-color); margin: 0px 0px 0px 4px; line-height: 120%;&quot;&gt;&lt;span style=&quot;border-color: var(--border-color); background-color: initial;&quot;&gt;+ getPillarName(Sting): String&lt;/span&gt;&lt;/p&gt;&lt;p style=&quot;border-color: var(--border-color); margin: 0px 0px 0px 4px; line-height: 120%;&quot;&gt;&lt;span style=&quot;border-color: var(--border-color); background-color: initial;&quot;&gt;+ getHead(): String&lt;/span&gt;&lt;/p&gt;&lt;p style=&quot;border-color: var(--border-color); margin: 0px 0px 0px 4px; line-height: 120%;&quot;&gt;&lt;span style=&quot;border-color: var(--border-color); background-color: initial;&quot;&gt;+ getBody(): String&lt;/span&gt;&lt;/p&gt;&lt;p style=&quot;border-color: var(--border-color); margin: 0px 0px 0px 4px; line-height: 120%;&quot;&gt;&lt;span style=&quot;border-color: var(--border-color); background-color: initial;&quot;&gt;&lt;/span&gt;&lt;/p&gt;&lt;p style=&quot;border-color: var(--border-color); margin: 0px 0px 0px 4px; line-height: 120%;&quot;&gt;&lt;span style=&quot;border-color: var(--border-color); background-color: initial;&quot;&gt;+ getWordcount(): int&lt;/span&gt;&lt;/p&gt;&lt;p style=&quot;border-color: var(--border-color); margin: 0px 0px 0px 4px; line-height: 120%;&quot;&gt;&lt;span style=&quot;border-color: var(--border-color); background-color: initial;&quot;&gt;&lt;br&gt;&lt;/span&gt;&lt;/p&gt;" style="verticalAlign=top;align=left;overflow=fill;fontSize=14;fontFamily=Helvetica;html=1;rounded=0;shadow=0;comic=0;labelBackgroundColor=none;strokeWidth=1;" parent="mAL0lLLCEUub4huDnKcQ-2" vertex="1">
          <mxGeometry x="80" y="340" width="400" height="530" as="geometry" />
        </mxCell>
        <mxCell id="o7I11ooh4matLgYH27c4-109" value="&lt;p style=&quot;margin: 4px 0px 0px; text-align: center; line-height: 120%; font-size: 16px;&quot;&gt;&lt;b style=&quot;&quot;&gt;&lt;font style=&quot;font-size: 16px;&quot;&gt;Article&lt;/font&gt;&lt;/b&gt;&lt;/p&gt;&lt;hr style=&quot;line-height: 120%; font-size: 16px;&quot; size=&quot;1&quot;&gt;&lt;p style=&quot;margin: 0px 0px 0px 4px; line-height: 120%;&quot;&gt;- head: String&lt;br&gt;- body: String&lt;/p&gt;&lt;hr style=&quot;line-height: 120%;&quot; size=&quot;1&quot;&gt;&lt;p style=&quot;margin: 0px 0px 0px 4px; line-height: 120%;&quot;&gt;&lt;/p&gt;+ Article(String, String):&lt;br&gt;+ getHead(): String&lt;br&gt;+ getBody(): String" style="verticalAlign=top;align=left;overflow=fill;fontSize=14;fontFamily=Helvetica;html=1;rounded=0;shadow=0;comic=0;labelBackgroundColor=none;strokeWidth=1;" parent="mAL0lLLCEUub4huDnKcQ-2" vertex="1">
          <mxGeometry x="410" y="120" width="164" height="140" as="geometry" />
        </mxCell>
        <mxCell id="o7I11ooh4matLgYH27c4-110" value="&lt;p style=&quot;margin: 4px 0px 0px; text-align: center; line-height: 120%;&quot;&gt;&lt;b&gt;&lt;font style=&quot;font-size: 16px;&quot;&gt;CSVArticle&lt;/font&gt;&lt;/b&gt;&lt;/p&gt;&lt;hr style=&quot;line-height: 120%;&quot; size=&quot;1&quot;&gt;&lt;p style=&quot;margin: 0px 0px 0px 4px; line-height: 120%;&quot;&gt;&lt;/p&gt;&lt;p style=&quot;margin: 0px 0px 0px 4px; line-height: 120%;&quot;&gt;- URL: URL&lt;br&gt;- sourceSet: String&lt;br&gt;- Date: String&lt;br&gt;- source: String&lt;br&gt;- identifier: String&lt;/p&gt;&lt;hr style=&quot;line-height: 120%;&quot; size=&quot;1&quot;&gt;&lt;p style=&quot;margin: 0px 0px 0px 4px; line-height: 120%;&quot;&gt;&lt;/p&gt;&amp;nbsp;+ CSVArticle(String, String, String, URL, String, String, String):&lt;br&gt;&amp;nbsp;+ getIdentifier(): String&lt;br style=&quot;border-color: var(--border-color);&quot;&gt;&amp;nbsp;+ getURL(): URL&lt;br style=&quot;border-color: var(--border-color);&quot;&gt;&amp;nbsp;+ getDate(): String&lt;br style=&quot;border-color: var(--border-color);&quot;&gt;&amp;nbsp;+ getSourceSet(): String&lt;br style=&quot;border-color: var(--border-color);&quot;&gt;&amp;nbsp;+ getSource(): String&lt;br style=&quot;border-color: var(--border-color);&quot;&gt;&amp;nbsp;+ getBody(): String&lt;br style=&quot;border-color: var(--border-color);&quot;&gt;&amp;nbsp;+ getHead(): String" style="verticalAlign=top;align=left;overflow=fill;fontSize=14;fontFamily=Helvetica;html=1;rounded=0;shadow=0;comic=0;labelBackgroundColor=none;strokeWidth=1;" parent="mAL0lLLCEUub4huDnKcQ-2" vertex="1">
          <mxGeometry x="510" y="340.07" width="420" height="279.93" as="geometry" />
        </mxCell>
        <mxCell id="o7I11ooh4matLgYH27c4-111" value="" style="html=1;rounded=1;edgeStyle=orthogonalEdgeStyle;dashed=0;startArrow=none;endArrow=block;endSize=12;strokeColor=#000082;entryX=0.5;entryY=1;entryDx=0;entryDy=0;endFill=0;" parent="mAL0lLLCEUub4huDnKcQ-2" target="o7I11ooh4matLgYH27c4-109" edge="1">
          <mxGeometry width="50" height="50" relative="1" as="geometry">
            <Array as="points">
              <mxPoint x="280" y="300" />
              <mxPoint x="492" y="300" />
            </Array>
            <mxPoint x="520" y="310" as="targetPoint" />
            <mxPoint x="280" y="340" as="sourcePoint" />
          </mxGeometry>
        </mxCell>
        <mxCell id="o7I11ooh4matLgYH27c4-112" value="" style="html=1;rounded=1;edgeStyle=orthogonalEdgeStyle;dashed=0;startArrow=none;endArrow=block;endSize=12;strokeColor=#000082;endFill=0;" parent="mAL0lLLCEUub4huDnKcQ-2" source="o7I11ooh4matLgYH27c4-110" edge="1">
          <mxGeometry width="50" height="50" relative="1" as="geometry">
            <Array as="points">
              <mxPoint x="710" y="300" />
              <mxPoint x="492" y="300" />
            </Array>
            <mxPoint x="492" y="260" as="targetPoint" />
          </mxGeometry>
        </mxCell>
        <mxCell id="o7I11ooh4matLgYH27c4-113" value="" style="resizable=0;html=1;whiteSpace=wrap;align=right;verticalAlign=bottom;" parent="mAL0lLLCEUub4huDnKcQ-2" connectable="0" vertex="1">
          <mxGeometry x="279.95519257172054" y="340.0721039075752" as="geometry" />
        </mxCell>
        <mxCell id="o7I11ooh4matLgYH27c4-115" value="Article" style="text;strokeColor=none;fillColor=none;html=1;fontSize=24;fontStyle=1;verticalAlign=middle;align=center;" parent="mAL0lLLCEUub4huDnKcQ-2" vertex="1">
          <mxGeometry x="20" width="100" height="40" as="geometry" />
        </mxCell>
        <mxCell id="o7I11ooh4matLgYH27c4-72" value="" style="shape=folder;fontStyle=1;spacingTop=10;tabWidth=240;tabHeight=40;tabPosition=left;html=1;whiteSpace=wrap;movable=1;resizable=1;rotatable=1;deletable=1;editable=1;locked=0;connectable=1;" parent="1" vertex="1">
          <mxGeometry x="-1010" y="-80" width="1640" height="1210" as="geometry" />
        </mxCell>
        <mxCell id="o7I11ooh4matLgYH27c4-73" value="" style="shape=folder;fontStyle=1;spacingTop=10;tabWidth=170;tabHeight=30;tabPosition=left;html=1;whiteSpace=wrap;movable=1;resizable=1;rotatable=1;deletable=1;editable=1;locked=0;connectable=1;container=0;" parent="1" vertex="1">
          <mxGeometry x="-930" y="240" width="1020" height="824" as="geometry">
            <mxRectangle x="86.75" y="324" width="50" height="40" as="alternateBounds" />
          </mxGeometry>
        </mxCell>
        <mxCell id="o7I11ooh4matLgYH27c4-75" value="&lt;p style=&quot;margin: 4px 0px 0px; text-align: center; line-height: 120%; font-size: 16px;&quot;&gt;&lt;b style=&quot;&quot;&gt;&lt;font style=&quot;font-size: 16px;&quot;&gt;APISource&lt;/font&gt;&lt;/b&gt;&lt;/p&gt;&lt;hr style=&quot;line-height: 120%; font-size: 16px;&quot; size=&quot;1&quot;&gt;&lt;p style=&quot;margin: 0px 0px 0px 4px; line-height: 120%;&quot;&gt;&lt;/p&gt;&lt;p style=&quot;margin: 0px 0px 0px 4px; line-height: 120%;&quot;&gt;- client: HTTPClient&lt;/p&gt;&lt;p style=&quot;margin: 0px 0px 0px 4px; line-height: 120%;&quot;&gt;-&amp;nbsp;urlSetter:&amp;nbsp;URLSetter&lt;/p&gt;&lt;p style=&quot;margin: 0px 0px 0px 4px; line-height: 120%;&quot;&gt;-&amp;nbsp;jsonParser:&amp;nbsp;APIParser&lt;/p&gt;&lt;p style=&quot;margin: 0px 0px 0px 4px; line-height: 120%;&quot;&gt;-&amp;nbsp;maxArticle: int&lt;/p&gt;&lt;p style=&quot;margin: 0px 0px 0px 4px; line-height: 120%;&quot;&gt;-&amp;nbsp;INITIALCOUNT: int&lt;/p&gt;&lt;p style=&quot;margin: 0px 0px 0px 4px; line-height: 120%;&quot;&gt;-&amp;nbsp; PAGESIZE: int&lt;/p&gt;&lt;p style=&quot;margin: 0px 0px 0px 4px; line-height: 120%;&quot;&gt;- articles: List&amp;lt;APIArticle&amp;gt;&lt;/p&gt;&lt;hr style=&quot;line-height: 120%;&quot; size=&quot;1&quot;&gt;&lt;p style=&quot;margin: 0px 0px 0px 4px; line-height: 120%;&quot;&gt;&lt;span style=&quot;background-color: initial;&quot;&gt;+ APISource(String, String[], String[], int):&lt;/span&gt;&lt;/p&gt;&lt;div style=&quot;line-height: 120%;&quot;&gt;&amp;nbsp;- readArticle(): void&lt;/div&gt;" style="verticalAlign=top;align=left;overflow=fill;fontSize=14;fontFamily=Helvetica;html=1;rounded=0;shadow=0;comic=0;labelBackgroundColor=none;strokeWidth=1;movable=1;resizable=1;rotatable=1;deletable=1;editable=1;locked=0;connectable=1;" parent="1" vertex="1">
          <mxGeometry x="-523.25" y="504" width="313" height="216" as="geometry" />
        </mxCell>
        <mxCell id="o7I11ooh4matLgYH27c4-79" value="" style="endArrow=diamondThin;endFill=1;endSize=24;html=1;rounded=0;exitX=1;exitY=0.25;exitDx=0;exitDy=0;entryX=0;entryY=0.75;entryDx=0;entryDy=0;movable=1;resizable=1;rotatable=1;deletable=1;editable=1;locked=0;connectable=1;" parent="1" source="o7I11ooh4matLgYH27c4-74" target="o7I11ooh4matLgYH27c4-75" edge="1">
          <mxGeometry width="160" relative="1" as="geometry">
            <mxPoint x="-333.25" y="704" as="sourcePoint" />
            <mxPoint x="-173.25" y="704" as="targetPoint" />
          </mxGeometry>
        </mxCell>
        <mxCell id="o7I11ooh4matLgYH27c4-80" value="" style="endArrow=diamondThin;endFill=1;endSize=24;html=1;rounded=0;exitX=0.5;exitY=0;exitDx=0;exitDy=0;entryX=1;entryY=0.75;entryDx=0;entryDy=0;movable=1;resizable=1;rotatable=1;deletable=1;editable=1;locked=0;connectable=1;" parent="1" source="o7I11ooh4matLgYH27c4-77" target="o7I11ooh4matLgYH27c4-75" edge="1">
          <mxGeometry width="160" relative="1" as="geometry">
            <mxPoint x="-943.25" y="764" as="sourcePoint" />
            <mxPoint x="-243.25" y="594" as="targetPoint" />
          </mxGeometry>
        </mxCell>
        <mxCell id="o7I11ooh4matLgYH27c4-82" value="" style="endArrow=diamondThin;endFill=0;endSize=24;html=1;rounded=0;exitX=0;exitY=0.5;exitDx=0;exitDy=0;entryX=0.75;entryY=0;entryDx=0;entryDy=0;movable=1;resizable=1;rotatable=1;deletable=1;editable=1;locked=0;connectable=1;" parent="1" source="o7I11ooh4matLgYH27c4-76" target="o7I11ooh4matLgYH27c4-75" edge="1">
          <mxGeometry width="160" relative="1" as="geometry">
            <mxPoint x="-433.25" y="704" as="sourcePoint" />
            <mxPoint x="-273.25" y="704" as="targetPoint" />
          </mxGeometry>
        </mxCell>
        <mxCell id="o7I11ooh4matLgYH27c4-84" value="" style="shape=folder;fontStyle=1;spacingTop=10;tabWidth=120;tabHeight=30;tabPosition=left;html=1;whiteSpace=wrap;movable=1;resizable=1;rotatable=1;deletable=1;editable=1;locked=0;connectable=1;container=0;" parent="1" vertex="1">
          <mxGeometry x="166.75" y="240" width="383.25" height="406" as="geometry" />
        </mxCell>
        <mxCell id="o7I11ooh4matLgYH27c4-85" value="&lt;p style=&quot;margin: 4px 0px 0px; text-align: center; line-height: 120%;&quot;&gt;&lt;b&gt;&lt;font style=&quot;font-size: 16px;&quot;&gt;CSVParser&lt;/font&gt;&lt;/b&gt;&lt;/p&gt;&lt;hr style=&quot;line-height: 120%;&quot; size=&quot;1&quot;&gt;&lt;p style=&quot;margin: 0px 0px 0px 4px; line-height: 120%;&quot;&gt;&lt;/p&gt;&lt;p style=&quot;margin: 0px 0px 0px 4px; line-height: 120%;&quot;&gt;- articles: List&amp;lt;CSVArticle&amp;gt;&lt;/p&gt;&lt;p style=&quot;margin: 0px 0px 0px 4px; line-height: 120%;&quot;&gt;- reader: CSVReader&lt;/p&gt;&lt;hr style=&quot;line-height: 120%;&quot; size=&quot;1&quot;&gt;&lt;p style=&quot;margin: 0px 0px 0px 4px; line-height: 120%;&quot;&gt;+ CSVParser():&lt;/p&gt;&lt;p style=&quot;margin: 0px 0px 0px 4px; line-height: 120%;&quot;&gt;+ parse(String): void&lt;/p&gt;&lt;p style=&quot;margin: 0px 0px 0px 4px; line-height: 120%;&quot;&gt;- readArticles(): void&lt;/p&gt;&lt;p style=&quot;margin: 0px 0px 0px 4px; line-height: 120%;&quot;&gt;+ getArticles(): List&amp;lt;CSVArticle&amp;gt;&lt;/p&gt;&lt;p style=&quot;margin: 0px 0px 0px 4px; line-height: 120%;&quot;&gt;&lt;br&gt;&lt;/p&gt;" style="verticalAlign=top;align=left;overflow=fill;fontSize=14;fontFamily=Helvetica;html=1;rounded=0;shadow=0;comic=0;labelBackgroundColor=none;strokeWidth=1;movable=1;resizable=1;rotatable=1;deletable=1;editable=1;locked=0;connectable=1;" parent="1" vertex="1">
          <mxGeometry x="300" y="458" width="213" height="158" as="geometry" />
        </mxCell>
        <mxCell id="o7I11ooh4matLgYH27c4-86" value="&lt;p style=&quot;margin: 4px 0px 0px; text-align: center; line-height: 120%;&quot;&gt;&lt;b&gt;&lt;font style=&quot;font-size: 16px;&quot;&gt;CSVSource&lt;/font&gt;&lt;/b&gt;&lt;/p&gt;&lt;hr style=&quot;line-height: 120%;&quot; size=&quot;1&quot;&gt;&lt;p style=&quot;margin: 0px 0px 0px 4px; line-height: 120%;&quot;&gt;&lt;/p&gt;&lt;p style=&quot;margin: 0px 0px 0px 4px; line-height: 120%;&quot;&gt;- parser: CSVParser&lt;/p&gt;&lt;p style=&quot;margin: 0px 0px 0px 4px; line-height: 120%;&quot;&gt;- articles: List&amp;lt;CSVArticle&amp;gt;&lt;/p&gt;&lt;hr style=&quot;line-height: 120%;&quot; size=&quot;1&quot;&gt;&lt;p style=&quot;margin: 0px 0px 0px 4px; line-height: 120%;&quot;&gt;+ CSVSource(String):&lt;/p&gt;" style="verticalAlign=top;align=left;overflow=fill;fontSize=14;fontFamily=Helvetica;html=1;rounded=0;shadow=0;comic=0;labelBackgroundColor=none;strokeWidth=1;movable=1;resizable=1;rotatable=1;deletable=1;editable=1;locked=0;connectable=1;" parent="1" vertex="1">
          <mxGeometry x="216.75" y="282" width="173.75" height="108" as="geometry" />
        </mxCell>
        <mxCell id="o7I11ooh4matLgYH27c4-88" value="&lt;font style=&quot;font-size: 20px;&quot;&gt;CSVSource&lt;/font&gt;" style="text;strokeColor=none;fillColor=none;html=1;fontSize=24;fontStyle=1;verticalAlign=middle;align=center;movable=1;resizable=1;rotatable=1;deletable=1;editable=1;locked=0;connectable=1;" parent="1" vertex="1">
          <mxGeometry x="176.75" y="240" width="100" height="30" as="geometry" />
        </mxCell>
        <mxCell id="o7I11ooh4matLgYH27c4-89" value="" style="html=1;rounded=1;edgeStyle=orthogonalEdgeStyle;dashed=1;startArrow=none;endArrow=block;endSize=12;strokeColor=#008200;exitX=0.5;exitY=0;exitDx=0;exitDy=0;entryX=0.5;entryY=1;entryDx=0;entryDy=0;movable=1;resizable=1;rotatable=1;deletable=1;editable=1;locked=0;connectable=1;endFill=0;" parent="1" source="o7I11ooh4matLgYH27c4-75" target="o7I11ooh4matLgYH27c4-90" edge="1">
          <mxGeometry width="50" height="50" relative="1" as="geometry">
            <Array as="points">
              <mxPoint x="-367" y="159" />
              <mxPoint x="97" y="159" />
            </Array>
            <mxPoint x="96.64000000000033" y="124" as="targetPoint" />
            <mxPoint x="-149.35999999999967" y="174" as="sourcePoint" />
          </mxGeometry>
        </mxCell>
        <mxCell id="o7I11ooh4matLgYH27c4-90" value="&lt;div style=&quot;text-align: center; line-height: 120%;&quot;&gt;&lt;i style=&quot;background-color: initial; border-color: var(--border-color);&quot;&gt;&amp;lt;&amp;lt;interface&amp;gt;&amp;gt;&lt;/i&gt;&lt;br&gt;&lt;/div&gt;&lt;b style=&quot;border-color: var(--border-color); font-size: 16px;&quot;&gt;&lt;div style=&quot;text-align: center; line-height: 120%;&quot;&gt;&lt;b style=&quot;background-color: initial; border-color: var(--border-color);&quot;&gt;&lt;font style=&quot;font-size: 16px;&quot;&gt;ArticleSource&lt;/font&gt;&lt;/b&gt;&lt;/div&gt;&lt;/b&gt;&lt;hr style=&quot;line-height: 120%; font-size: 16px;&quot; size=&quot;1&quot;&gt;&lt;p style=&quot;margin: 0px 0px 0px 4px; line-height: 120%;&quot;&gt;&lt;/p&gt;&lt;p style=&quot;margin: 0px 0px 0px 4px; line-height: 120%;&quot;&gt;&amp;nbsp;&lt;/p&gt;&lt;hr style=&quot;line-height: 120%;&quot; size=&quot;1&quot;&gt;&lt;p style=&quot;margin: 0px 0px 0px 4px; line-height: 120%;&quot;&gt;getArticles(): List&amp;lt;? extends Article&amp;gt;&lt;/p&gt;" style="verticalAlign=top;align=left;overflow=fill;fontSize=14;fontFamily=Helvetica;html=1;rounded=0;shadow=0;comic=0;labelBackgroundColor=none;strokeWidth=1;movable=1;resizable=1;rotatable=1;deletable=1;editable=1;locked=0;connectable=1;" parent="1" vertex="1">
          <mxGeometry x="-23.25" y="-20" width="239.99999999999997" height="110" as="geometry" />
        </mxCell>
        <mxCell id="o7I11ooh4matLgYH27c4-91" value="" style="html=1;rounded=1;edgeStyle=orthogonalEdgeStyle;dashed=1;startArrow=none;endArrow=block;endSize=12;strokeColor=#008200;entryX=0.5;entryY=1;entryDx=0;entryDy=0;exitX=0.5;exitY=0;exitDx=0;exitDy=0;movable=1;resizable=1;rotatable=1;deletable=1;editable=1;locked=0;connectable=1;endFill=0;" parent="1" source="o7I11ooh4matLgYH27c4-86" target="o7I11ooh4matLgYH27c4-90" edge="1">
          <mxGeometry width="50" height="50" relative="1" as="geometry">
            <Array as="points">
              <mxPoint x="307" y="159" />
              <mxPoint x="97" y="159" />
            </Array>
            <mxPoint x="800.7499999999998" y="44" as="targetPoint" />
            <mxPoint x="337.75" y="234" as="sourcePoint" />
          </mxGeometry>
        </mxCell>
        <mxCell id="o7I11ooh4matLgYH27c4-92" value="ArticleSource" style="text;strokeColor=none;fillColor=none;html=1;fontSize=24;fontStyle=1;verticalAlign=middle;align=center;movable=1;resizable=1;rotatable=1;deletable=1;editable=1;locked=0;connectable=1;" parent="1" vertex="1">
          <mxGeometry x="-940" y="-80" width="100" height="40" as="geometry" />
        </mxCell>
        <mxCell id="-yUXrJWbzMwKg_9LQQd3-9" value="&lt;font style=&quot;font-size: 18px;&quot;&gt;1&lt;/font&gt;" style="edgeLabel;resizable=0;html=1;align=left;verticalAlign=bottom;" parent="1" connectable="0" vertex="1">
          <mxGeometry x="-310" y="940" as="geometry">
            <mxPoint x="714" y="-491" as="offset" />
          </mxGeometry>
        </mxCell>
        <mxCell id="-yUXrJWbzMwKg_9LQQd3-10" value="&lt;font style=&quot;font-size: 18px;&quot;&gt;1&lt;/font&gt;" style="edgeLabel;resizable=0;html=1;align=left;verticalAlign=bottom;" parent="1" connectable="0" vertex="1">
          <mxGeometry x="370" y="426" as="geometry" />
        </mxCell>
        <mxCell id="-yUXrJWbzMwKg_9LQQd3-11" value="" style="endArrow=diamondThin;endFill=1;endSize=24;html=1;rounded=0;entryX=0.75;entryY=1;entryDx=0;entryDy=0;exitX=0.5;exitY=0;exitDx=0;exitDy=0;" parent="1" source="o7I11ooh4matLgYH27c4-85" target="o7I11ooh4matLgYH27c4-86" edge="1">
          <mxGeometry width="160" relative="1" as="geometry">
            <mxPoint x="270" y="466" as="sourcePoint" />
            <mxPoint x="430" y="466" as="targetPoint" />
          </mxGeometry>
        </mxCell>
        <mxCell id="-yUXrJWbzMwKg_9LQQd3-1" value="&lt;font style=&quot;font-size: 18px;&quot;&gt;1&lt;/font&gt;" style="edgeLabel;resizable=0;html=1;align=left;verticalAlign=bottom;" parent="1" connectable="0" vertex="1">
          <mxGeometry x="-200" y="670" as="geometry" />
        </mxCell>
        <mxCell id="-yUXrJWbzMwKg_9LQQd3-2" value="&lt;font style=&quot;font-size: 18px;&quot;&gt;1&lt;/font&gt;" style="edgeLabel;resizable=0;html=1;align=left;verticalAlign=bottom;" parent="1" connectable="0" vertex="1">
          <mxGeometry x="-112.5" y="780" as="geometry" />
        </mxCell>
        <mxCell id="o7I11ooh4matLgYH27c4-74" value="&lt;p style=&quot;margin: 4px 0px 0px; text-align: center; line-height: 120%;&quot;&gt;&lt;b&gt;&lt;font style=&quot;font-size: 16px;&quot;&gt;APIParser&lt;/font&gt;&lt;/b&gt;&lt;/p&gt;&lt;hr style=&quot;line-height: 120%;&quot; size=&quot;1&quot;&gt;&lt;p style=&quot;margin: 0px 0px 0px 4px; line-height: 120%;&quot;&gt;&lt;/p&gt;&lt;p style=&quot;margin: 0px 0px 0px 4px; line-height: 120%;&quot;&gt;- total: int&lt;br&gt;- pages: int&lt;br&gt;- userTier: String&lt;br&gt;- orderBy: String&lt;br&gt;- pageSize: int&lt;br&gt;- articles: List&amp;lt;APIArticle&amp;gt;&lt;br&gt;- status: String&lt;br&gt;- startIndex: int&lt;br&gt;- currentPage: int&lt;/p&gt;&lt;hr style=&quot;line-height: 120%;&quot; size=&quot;1&quot;&gt;&lt;p style=&quot;margin: 0px 0px 0px 4px; line-height: 120%;&quot;&gt;+ APIParser():&lt;br&gt;&lt;/p&gt;&lt;div style=&quot;line-height: 120%;&quot;&gt;&amp;nbsp;+ parse(JSONString): void&lt;/div&gt;&lt;div style=&quot;line-height: 120%;&quot;&gt;&amp;nbsp;+&amp;nbsp;getStatus&lt;span style=&quot;background-color: initial;&quot;&gt;(): String&lt;/span&gt;&lt;/div&gt;&lt;div style=&quot;line-height: 120%;&quot;&gt;&amp;nbsp;+&amp;nbsp;getTotal&lt;span style=&quot;background-color: initial;&quot;&gt;(): int&lt;/span&gt;&lt;br&gt;&lt;/div&gt;&lt;div style=&quot;line-height: 120%;&quot;&gt;&amp;nbsp;+&amp;nbsp;getStartIndex&lt;span style=&quot;background-color: initial;&quot;&gt;():i int&lt;/span&gt;&lt;br&gt;&lt;/div&gt;&lt;div style=&quot;line-height: 120%;&quot;&gt;&lt;div style=&quot;border-color: var(--border-color); line-height: 120%;&quot;&gt;&amp;nbsp;+&amp;nbsp;getPageSize&lt;span style=&quot;background-color: initial;&quot;&gt;()&lt;/span&gt;: int&lt;br&gt;&lt;/div&gt;&lt;div style=&quot;border-color: var(--border-color); line-height: 120%;&quot;&gt;&lt;div style=&quot;border-color: var(--border-color); line-height: 120%;&quot;&gt;&amp;nbsp;+&amp;nbsp;getUserTier&lt;span style=&quot;background-color: initial;&quot;&gt;(): String&lt;/span&gt;&lt;br&gt;&lt;/div&gt;&lt;div style=&quot;border-color: var(--border-color); line-height: 120%;&quot;&gt;&lt;div style=&quot;border-color: var(--border-color); line-height: 120%;&quot;&gt;&amp;nbsp;+&amp;nbsp;getCurrentPage&lt;span style=&quot;background-color: initial;&quot;&gt;()&lt;/span&gt;: int&lt;br&gt;&lt;/div&gt;&lt;div style=&quot;border-color: var(--border-color); line-height: 120%;&quot;&gt;&lt;div style=&quot;border-color: var(--border-color); line-height: 120%;&quot;&gt;&amp;nbsp;+&amp;nbsp;getOrderBy&lt;span style=&quot;background-color: initial;&quot;&gt;(): String&lt;/span&gt;&lt;br&gt;&lt;/div&gt;&lt;div style=&quot;border-color: var(--border-color); line-height: 120%;&quot;&gt;&lt;div style=&quot;border-color: var(--border-color); line-height: 120%;&quot;&gt;&amp;nbsp;+&amp;nbsp;getPages&lt;span style=&quot;background-color: initial;&quot;&gt;(): int&lt;/span&gt;&lt;br&gt;&lt;/div&gt;&lt;div style=&quot;border-color: var(--border-color); line-height: 120%;&quot;&gt;&lt;div style=&quot;border-color: var(--border-color); line-height: 120%;&quot;&gt;&amp;nbsp;+&amp;nbsp;getArticles&lt;span style=&quot;background-color: initial;&quot;&gt;():&amp;nbsp;&lt;/span&gt;List&amp;lt;APIArticle&amp;gt;&lt;br&gt;&lt;/div&gt;&lt;div style=&quot;border-color: var(--border-color); line-height: 120%;&quot;&gt;&lt;br style=&quot;border-color: var(--border-color);&quot;&gt;&lt;/div&gt;&lt;/div&gt;&lt;/div&gt;&lt;/div&gt;&lt;div style=&quot;border-color: var(--border-color); line-height: 120%;&quot;&gt;&lt;br style=&quot;border-color: var(--border-color);&quot;&gt;&lt;/div&gt;&lt;/div&gt;&lt;/div&gt;&lt;/div&gt;&lt;div style=&quot;line-height: 120%;&quot;&gt;&lt;br&gt;&lt;/div&gt;" style="verticalAlign=top;align=left;overflow=fill;fontSize=14;fontFamily=Helvetica;html=1;rounded=0;shadow=0;comic=0;labelBackgroundColor=none;strokeWidth=1;movable=1;resizable=1;rotatable=1;deletable=1;editable=1;locked=0;connectable=1;" parent="1" vertex="1">
          <mxGeometry x="-886.75" y="620" width="216.75" height="405" as="geometry" />
        </mxCell>
        <mxCell id="-yUXrJWbzMwKg_9LQQd3-3" value="&lt;font style=&quot;font-size: 18px;&quot;&gt;1&lt;/font&gt;" style="edgeLabel;resizable=0;html=1;align=left;verticalAlign=bottom;" parent="1" connectable="0" vertex="1">
          <mxGeometry x="-566.75" y="710" as="geometry" />
        </mxCell>
        <mxCell id="-yUXrJWbzMwKg_9LQQd3-4" value="&lt;font style=&quot;font-size: 18px;&quot;&gt;1&lt;/font&gt;" style="edgeLabel;resizable=0;html=1;align=left;verticalAlign=bottom;" parent="1" connectable="0" vertex="1">
          <mxGeometry x="-666.75" y="760" as="geometry">
            <mxPoint y="-14" as="offset" />
          </mxGeometry>
        </mxCell>
        <mxCell id="-yUXrJWbzMwKg_9LQQd3-5" value="&lt;font style=&quot;font-size: 18px;&quot;&gt;1&lt;/font&gt;" style="edgeLabel;resizable=0;html=1;align=left;verticalAlign=bottom;" parent="1" connectable="0" vertex="1">
          <mxGeometry x="-770" y="619" as="geometry" />
        </mxCell>
        <mxCell id="-yUXrJWbzMwKg_9LQQd3-6" value="&lt;font style=&quot;font-size: 18px;&quot;&gt;1&lt;/font&gt;" style="edgeLabel;resizable=0;html=1;align=left;verticalAlign=bottom;" parent="1" connectable="0" vertex="1">
          <mxGeometry x="-770" y="520" as="geometry" />
        </mxCell>
        <mxCell id="-yUXrJWbzMwKg_9LQQd3-7" value="&lt;font style=&quot;font-size: 18px;&quot;&gt;1&lt;/font&gt;" style="edgeLabel;resizable=0;html=1;align=left;verticalAlign=bottom;" parent="1" connectable="0" vertex="1">
          <mxGeometry x="-185" y="390" as="geometry">
            <mxPoint x="-16" y="24" as="offset" />
          </mxGeometry>
        </mxCell>
        <mxCell id="o7I11ooh4matLgYH27c4-83" value="&lt;font style=&quot;font-size: 20px;&quot;&gt;APISource&lt;/font&gt;" style="text;strokeColor=none;fillColor=none;html=1;fontSize=24;fontStyle=1;verticalAlign=middle;align=center;movable=1;resizable=1;rotatable=1;deletable=1;editable=1;locked=0;connectable=1;" parent="1" vertex="1">
          <mxGeometry x="-910" y="240" width="100" height="30" as="geometry" />
        </mxCell>
        <mxCell id="o7I11ooh4matLgYH27c4-78" value="&lt;p style=&quot;margin: 4px 0px 0px; text-align: center; line-height: 120%; font-size: 16px;&quot;&gt;&lt;b style=&quot;&quot;&gt;&lt;font style=&quot;font-size: 16px;&quot;&gt;HTMLParser&lt;/font&gt;&lt;/b&gt;&lt;/p&gt;&lt;hr style=&quot;line-height: 120%; font-size: 16px;&quot; size=&quot;1&quot;&gt;&lt;p style=&quot;margin: 0px 0px 0px 4px; line-height: 120%;&quot;&gt;&lt;/p&gt;&lt;p style=&quot;margin: 0px 0px 0px 4px; line-height: 120%;&quot;&gt;&amp;nbsp;&lt;/p&gt;&lt;hr style=&quot;line-height: 120%;&quot; size=&quot;1&quot;&gt;&lt;p style=&quot;margin: 0px 0px 0px 4px; line-height: 120%;&quot;&gt;+ HTMLParser():&lt;br style=&quot;border-color: var(--border-color);&quot;&gt;&lt;/p&gt;&lt;p style=&quot;margin: 0px 0px 0px 4px; line-height: 120%;&quot;&gt;+ parse(String): String&lt;br&gt;&lt;/p&gt;" style="verticalAlign=top;align=left;overflow=fill;fontSize=14;fontFamily=Helvetica;html=1;rounded=0;shadow=0;comic=0;labelBackgroundColor=none;strokeWidth=1;movable=1;resizable=1;rotatable=1;deletable=1;editable=1;locked=0;connectable=1;" parent="1" vertex="1">
          <mxGeometry x="-886.7500000000001" y="380" width="213" height="110" as="geometry" />
        </mxCell>
        <mxCell id="o7I11ooh4matLgYH27c4-81" value="" style="endArrow=diamondThin;endFill=1;endSize=24;html=1;rounded=0;exitX=0.5;exitY=1;exitDx=0;exitDy=0;movable=1;resizable=1;rotatable=1;deletable=1;editable=1;locked=0;connectable=1;entryX=0.5;entryY=0;entryDx=0;entryDy=0;" parent="1" source="o7I11ooh4matLgYH27c4-78" target="o7I11ooh4matLgYH27c4-74" edge="1">
          <mxGeometry width="160" relative="1" as="geometry">
            <mxPoint x="-603.25" y="764" as="sourcePoint" />
            <mxPoint x="-670" y="924" as="targetPoint" />
          </mxGeometry>
        </mxCell>
        <mxCell id="o7I11ooh4matLgYH27c4-77" value="&lt;p style=&quot;margin: 4px 0px 0px; text-align: center; line-height: 120%; font-size: 16px;&quot;&gt;&lt;b style=&quot;&quot;&gt;&lt;font style=&quot;font-size: 16px;&quot;&gt;URLSetter&lt;/font&gt;&lt;/b&gt;&lt;/p&gt;&lt;hr style=&quot;line-height: 120%; font-size: 16px;&quot; size=&quot;1&quot;&gt;&lt;p style=&quot;margin: 0px 0px 0px 4px; line-height: 120%;&quot;&gt;&lt;/p&gt;&lt;p style=&quot;margin: 0px 0px 0px 4px; line-height: 120%;&quot;&gt;- URL: URL&lt;/p&gt;&lt;p style=&quot;margin: 0px 0px 0px 4px; line-height: 120%;&quot;&gt;- APIKey: String&lt;/p&gt;&lt;p style=&quot;margin: 0px 0px 0px 4px; line-height: 120%;&quot;&gt;- queries: String[]&lt;/p&gt;&lt;p style=&quot;margin: 0px 0px 0px 4px; line-height: 120%;&quot;&gt;- tags: String[]&lt;/p&gt;&lt;p style=&quot;margin: 0px 0px 0px 4px; line-height: 120%;&quot;&gt;- BASE_URL: String&lt;/p&gt;&lt;p style=&quot;margin: 0px 0px 0px 4px; line-height: 120%;&quot;&gt;- page: int&lt;/p&gt;&lt;p style=&quot;margin: 0px 0px 0px 4px; line-height: 120%;&quot;&gt;- pageSize: int&lt;/p&gt;&lt;hr style=&quot;line-height: 120%;&quot; size=&quot;1&quot;&gt;&lt;p style=&quot;margin: 0px 0px 0px 4px; line-height: 120%;&quot;&gt;+ URLSetter(String, int, int, String[], String[]):&lt;/p&gt;&lt;p style=&quot;margin: 0px 0px 0px 4px; line-height: 120%;&quot;&gt;- buildUrl(): void&lt;br&gt;+ incrementPage(): void&lt;/p&gt;&lt;p style=&quot;margin: 0px 0px 0px 4px; line-height: 120%;&quot;&gt;+ getURL(): URL&lt;/p&gt;&lt;p style=&quot;margin: 0px 0px 0px 4px; line-height: 120%;&quot;&gt;&lt;br&gt;&lt;/p&gt;" style="verticalAlign=top;align=left;overflow=fill;fontSize=14;fontFamily=Helvetica;html=1;rounded=0;shadow=0;comic=0;labelBackgroundColor=none;strokeWidth=1;movable=1;resizable=1;rotatable=1;deletable=1;editable=1;locked=0;connectable=1;" parent="1" vertex="1">
          <mxGeometry x="-280" y="780" width="334.99999999999994" height="240" as="geometry" />
        </mxCell>
        <mxCell id="o7I11ooh4matLgYH27c4-76" value="&lt;p style=&quot;margin: 4px 0px 0px; text-align: center; line-height: 120%; font-size: 16px;&quot;&gt;&lt;b style=&quot;&quot;&gt;&lt;font style=&quot;font-size: 16px;&quot;&gt;HTTPClient&lt;/font&gt;&lt;/b&gt;&lt;/p&gt;&lt;hr style=&quot;line-height: 120%; font-size: 16px;&quot; size=&quot;1&quot;&gt;&lt;p style=&quot;margin: 0px 0px 0px 4px; line-height: 120%;&quot;&gt;&lt;/p&gt;&lt;p style=&quot;margin: 0px 0px 0px 4px; line-height: 120%;&quot;&gt;- client:&amp;nbsp;CloseableHttpClient&lt;/p&gt;&lt;p style=&quot;margin: 0px 0px 0px 4px; line-height: 120%;&quot;&gt;- request:&amp;nbsp;HttpGet&lt;/p&gt;&lt;p style=&quot;margin: 0px 0px 0px 4px; line-height: 120%;&quot;&gt;- response:&amp;nbsp;CloseableHttpResponse&lt;/p&gt;&lt;p style=&quot;margin: 0px 0px 0px 4px; line-height: 120%;&quot;&gt;- connected: boolean&lt;/p&gt;&lt;p style=&quot;margin: 0px 0px 0px 4px; line-height: 120%;&quot;&gt;- TIMEOUT: int&lt;/p&gt;&lt;p style=&quot;margin: 0px 0px 0px 4px; line-height: 120%;&quot;&gt;-&amp;nbsp;CORRECT_STATUS: int&lt;/p&gt;&lt;hr style=&quot;line-height: 120%;&quot; size=&quot;1&quot;&gt;&lt;p style=&quot;margin: 0px 0px 0px 4px; line-height: 120%;&quot;&gt;+ HTTPClient():&lt;/p&gt;&lt;p style=&quot;margin: 0px 0px 0px 4px; line-height: 120%;&quot;&gt;+ HTTPClient(CloseableHttpClient):&lt;/p&gt;&lt;p style=&quot;margin: 0px 0px 0px 4px; line-height: 120%;&quot;&gt;+&amp;nbsp;getHttpString(): String&lt;/p&gt;&lt;p style=&quot;margin: 0px 0px 0px 4px; line-height: 120%;&quot;&gt;+&amp;nbsp;connect(URL): void&lt;/p&gt;&lt;p style=&quot;margin: 0px 0px 0px 4px; line-height: 120%;&quot;&gt;+&amp;nbsp;closeConnection(): void&lt;/p&gt;&lt;p style=&quot;margin: 0px 0px 0px 4px; line-height: 120%;&quot;&gt;+ isConnected(): boolean&lt;/p&gt;" style="verticalAlign=top;align=left;overflow=fill;fontSize=14;fontFamily=Helvetica;html=1;rounded=0;shadow=0;comic=0;labelBackgroundColor=none;strokeWidth=1;movable=1;resizable=1;rotatable=1;deletable=1;editable=1;locked=0;connectable=1;" parent="1" vertex="1">
          <mxGeometry x="-185" y="290" width="240" height="266" as="geometry" />
        </mxCell>
        <mxCell id="S2v32bnbqm7-MNyn45lh-2" value="&lt;font style=&quot;font-size: 18px;&quot;&gt;1&lt;/font&gt;" style="text;html=1;strokeColor=none;fillColor=none;align=center;verticalAlign=middle;whiteSpace=wrap;rounded=0;" parent="1" vertex="1">
          <mxGeometry x="-300" y="460" width="20" height="30" as="geometry" />
        </mxCell>
        <mxCell id="o7I11ooh4matLgYH27c4-132" value="" style="endArrow=none;html=1;edgeStyle=orthogonalEdgeStyle;rounded=0;exitX=0.25;exitY=1;exitDx=0;exitDy=0;entryX=0.712;entryY=-0.002;entryDx=0;entryDy=0;entryPerimeter=0;" parent="1" source="o7I11ooh4matLgYH27c4-86" target="o7I11ooh4matLgYH27c4-110" edge="1">
          <mxGeometry relative="1" as="geometry">
            <mxPoint x="253" y="640" as="sourcePoint" />
            <mxPoint x="253" y="1626" as="targetPoint" />
          </mxGeometry>
        </mxCell>
        <mxCell id="o7I11ooh4matLgYH27c4-133" value="&lt;font style=&quot;font-size: 18px;&quot;&gt;1&lt;/font&gt;" style="edgeLabel;resizable=0;html=1;align=left;verticalAlign=bottom;" parent="o7I11ooh4matLgYH27c4-132" connectable="0" vertex="1">
          <mxGeometry x="-1" relative="1" as="geometry">
            <mxPoint x="-23" y="38" as="offset" />
          </mxGeometry>
        </mxCell>
        <mxCell id="o7I11ooh4matLgYH27c4-134" value="&lt;font style=&quot;font-size: 18px;&quot;&gt;0..*&lt;/font&gt;" style="edgeLabel;resizable=0;html=1;align=right;verticalAlign=bottom;" parent="o7I11ooh4matLgYH27c4-132" connectable="0" vertex="1">
          <mxGeometry x="1" relative="1" as="geometry">
            <mxPoint x="35" y="-20" as="offset" />
          </mxGeometry>
        </mxCell>
        <mxCell id="o7I11ooh4matLgYH27c4-127" value="" style="endArrow=none;html=1;edgeStyle=orthogonalEdgeStyle;rounded=0;exitX=0.5;exitY=1;exitDx=0;exitDy=0;" parent="1" source="o7I11ooh4matLgYH27c4-75" edge="1">
          <mxGeometry relative="1" as="geometry">
            <mxPoint x="-470" y="1220" as="sourcePoint" />
            <mxPoint x="-367" y="1700" as="targetPoint" />
          </mxGeometry>
        </mxCell>
        <mxCell id="o7I11ooh4matLgYH27c4-128" value="&lt;font style=&quot;font-size: 18px;&quot;&gt;1&lt;/font&gt;" style="edgeLabel;resizable=0;html=1;align=left;verticalAlign=bottom;" parent="o7I11ooh4matLgYH27c4-127" connectable="0" vertex="1">
          <mxGeometry x="-1" relative="1" as="geometry">
            <mxPoint x="-23" y="46" as="offset" />
          </mxGeometry>
        </mxCell>
        <mxCell id="o7I11ooh4matLgYH27c4-129" value="&lt;font style=&quot;font-size: 18px;&quot;&gt;0..*&lt;/font&gt;" style="edgeLabel;resizable=0;html=1;align=right;verticalAlign=bottom;" parent="o7I11ooh4matLgYH27c4-127" connectable="0" vertex="1">
          <mxGeometry x="1" relative="1" as="geometry">
            <mxPoint x="-13" y="-29" as="offset" />
          </mxGeometry>
        </mxCell>
      </root>
    </mxGraphModel>
  </diagram>
</mxfile>
